<svg xmlns="http://www.w3.org/2000/svg" viewBox="0 0 48 48" width="48px" height="48px">
  <path fill="#07C160" d="M35.76,26.36h0.01c0,0-3.77,5.53-10.01,5.53c-6.24,0-10.01-5.53-10.01-5.53h0.01C9.48,26.36,4,33.05,4,33.05 l3.23,2.61c0,0,2.97-2.42,5.33-2.42c2.36,0,4.93,4.47,8.12,4.47c3.19,0,8.01-4.47,8.01-4.47s4.81,4.47,8.01,4.47 c3.19,0,5.76-4.47,8.12-4.47c2.36,0,5.33,2.42,5.33,2.42l3.23-2.61C53.36,33.05,47.88,26.36,35.76,26.36z"/>
  <path fill="#07C160" d="M34.77,9.33c-3.53,0-6.8,1.13-9.51,3.05c-2.72-1.92-6-3.05-9.54-3.05C9.13,9.33,4,14.47,4,20.8 c0,6.33,5.13,11.47,11.72,11.47c3.53,0,6.8-1.13,9.51-3.05c2.72,1.92,6,3.05,9.54,3.05C41.36,32.27,46.5,27.13,46.5,20.8 C46.5,14.47,41.36,9.33,34.77,9.33z M15.72,26.93c-3.37,0-6.1-2.73-6.1-6.1c0-3.37,2.73-6.1,6.1-6.1c3.37,0,6.1,2.73,6.1,6.1 C21.82,24.2,19.09,26.93,15.72,26.93z M34.77,26.93c-3.37,0-6.1-2.73-6.1-6.1c0-3.37,2.73-6.1,6.1-6.1c3.37,0,6.1,2.73,6.1,6.1 C40.87,24.2,38.14,26.93,34.77,26.93z"/>
</svg> 